<?xml version="1.0"?>
<svg xmlns="http://www.w3.org/2000/svg" xmlns:xlink="http://www.w3.org/1999/xlink" version="1.1" id="Layer_1" x="0px" y="0px" viewBox="0 0 487.8 487.8" style="enable-background:new 0 0 487.8 487.8;" xml:space="preserve" width="512px" height="512px" class=""><g><g>
	<g>
		<path id="XMLID_314_" style="fill:#038FFD" d="M177.75,321.7h-39.9c-2.1,0-3.9-1.8-3.9-3.9V208.3c0-2.1,1.8-3.9,3.9-3.9h39.9    c2.1,0,3.9,1.8,3.9,3.9v109.4C181.65,319.9,179.85,321.7,177.75,321.7z" data-original="#94A4A4" class="" data-old_color="#038ffd"/>
		<path style="fill:#2C2F33" d="M446.85,246.7c-0.9-1.8-0.9-3.9,0-5.6l27.6-54c3-5.8,3.5-12.4,1.5-18.6c-2-6.2-6.3-11.2-12.1-14.2    l-54.1-27.4c-1.8-0.9-3-2.6-3.3-4.6l-9.4-59.9c-1.9-11.9-12-20.5-24-20.5c-1.3,0-2.6,0.1-3.8,0.3l-59.9,9.5    c-1.9,0.3-4-0.4-5.4-1.7l-42.8-42.9c-4.6-4.6-10.7-7.1-17.2-7.1s-12.6,2.5-17.2,7.1L183.85,50c-1.2,1.2-2.7,1.8-4.4,1.8l0,0    c-0.3,0-0.7,0-1-0.1l-59.9-9.5c-1.3-0.2-2.6-0.3-3.8-0.3c-12,0-22.1,8.6-24,20.5l-9.4,59.9c-0.3,2-1.5,3.7-3.3,4.6l-54.1,27.5    c-5.8,2.9-10.1,8-12.1,14.2s-1.5,12.8,1.5,18.6l27.6,54c0.9,1.8,0.9,3.9,0,5.6l-27.6,54c-3,5.8-3.5,12.4-1.5,18.6    s6.3,11.2,12.1,14.2l54,27.3c1.8,0.9,3,2.6,3.3,4.6l9.4,59.9c1.9,11.9,12,20.5,24,20.5c1.3,0,2.6-0.1,3.8-0.3l59.9-9.5    c1.9-0.3,4,0.4,5.4,1.7l42.8,42.9c4.6,4.6,10.7,7.1,17.2,7.1s12.6-2.5,17.2-7.1l42.8-42.9c1.4-1.4,3.4-2.1,5.4-1.7l59.9,9.5    c1.3,0.2,2.6,0.3,3.9,0.3c12,0,22.1-8.6,24-20.5l9.4-59.9c0.3-2,1.5-3.7,3.3-4.6l54.1-27.5c5.8-2.9,10.1-8,12.1-14.2    s1.5-12.8-1.5-18.6L446.85,246.7z M458.65,313.7c-0.5,1.6-1.6,2.9-3.1,3.6l-54.1,27.5c-6.9,3.5-11.8,10.2-13,17.9l-9.4,59.9    c-0.5,3.3-3.7,5.7-7.1,5.1l-59.9-9.5c-1.3-0.2-2.5-0.3-3.8-0.3c-6.5,0-12.6,2.5-17.2,7.1l-42.8,42.9c-2.3,2.3-6.4,2.3-8.8,0    l-42.8-42.9c-4.5-4.5-10.8-7.1-17.2-7.1c-1.3,0-2.6,0.1-3.8,0.3l-59.9,9.5c-3.4,0.5-6.6-1.8-7.1-5.2l-9.4-59.9    c-1.2-7.7-6.1-14.4-13-17.9l-54.1-27.5c-1.5-0.7-2.6-2-3.1-3.6s-0.4-3.3,0.4-4.7l27.6-54c3.5-6.9,3.5-15.2,0-22.1l-27.6-54    c-0.8-1.5-0.9-3.2-0.4-4.7c0.5-1.6,1.6-2.9,3.1-3.6l54.1-27.5c6.9-3.5,11.8-10.2,13-17.9l9.4-59.9c0.5-3.3,3.7-5.7,7.1-5.1    l59.9,9.5c1.3,0.2,2.6,0.3,3.8,0.3l0,0c6.4,0,12.7-2.6,17.2-7.1l42.8-42.9c2.3-2.3,6.4-2.3,8.8,0l42.8,42.9c5.4,5.4,13.4,8,21,6.8    l59.9-9.5c3.4-0.5,6.6,1.8,7.1,5.1l9.4,59.9c1.2,7.7,6.1,14.4,13,17.9l54.1,27.5c1.5,0.7,2.6,2,3.1,3.6s0.4,3.3-0.4,4.7l-27.6,54    c-3.5,6.9-3.5,15.2,0,22.1l27.6,54C459.05,310.4,459.15,312.1,458.65,313.7z" data-original="#2C2F33" class="active-path"/>
		<path style="fill:#2C2F33" d="M322.15,184.9h-45v-31.5c0-15.9-4.8-27.5-14.2-34.4c-14.6-10.7-33.7-5.2-35.9-4.5    c-3.8,1.2-6.3,4.7-6.3,8.6v39.2c0,27.3-31.2,37.4-34.6,38.4c-3.1-3.3-7.5-5.4-12.3-5.4h-32c-9.3,0-16.9,7.6-16.9,16.9v101.5    c0,9.3,7.6,16.9,16.9,16.9h32c3.8,0,7.2-1.3,10.1-3.3c6.2,5.7,14.4,9.2,23.5,9.2h96c22.8,0,38-12.5,40.6-33.5l12.9-82    c0.1-0.5,0.1-0.9,0.1-1.4C356.95,200.5,341.35,184.9,322.15,184.9z M172.55,312.6h-29.6v-99.1h29.6V312.6z M326.05,300.4    c0,0.1,0,0.2,0,0.3c-0.5,4.4-2.2,17.7-22.6,17.7h-96c-9.2,0-16.6-7.5-16.6-16.6v-83.5c0,0,0,0,0.1,0c2-0.5,48.1-13.9,48.1-56    v-31.6c4.1-0.3,9.4,0,13.4,2.9c4.5,3.3,6.8,10,6.8,19.8V194c0,5,4.1,9.1,9.1,9.1h54.1c9,0,16.3,7.1,16.6,16L326.05,300.4z" data-original="#2C2F33" class="active-path"/>
	</g>
</g></g> </svg>
